# xmcd
#
# Track frame offsets:
#	150
#	15904
#	33679
#	51642
#	69024
#	83199
#	104589
#	117025
#	138771
#	149487
#	161009
#	173938
#	183951
#	200395
#	215335
#	227164
#	242605
#	261055
#	277002
#	284502
#	296990
#	308606
#
# Disc length: 4373 seconds
#
# Revision: 0
# Processed by: cddbd v1.5.2PL0 Copyright (c) Steve Scherf et al.
# Submitted via: EZCDAudioConverter 6.0.9.1
#
DISCID=48111316
DTITLE=Sunnyland Slim and Little Brother Montgomery - Chicago Blues-Milestones o
DTITLE=f Legends CD7
DYEAR=1960
DGENRE=Blues
TTITLE0=I'm prison bound
TTITLE1=Slim's shout
TTITLE2=The Devil is a busy man
TTITLE3=Brownskin Woman
TTITLE4=Shake it
TTITLE5=Decoration Day
TTITLE6=Baby how long
TTITLE7=Sunnyland Special
TTITLE8=Harlem Can't be Heaven
TTITLE9=It's You Baby
TTITLE10=One room country shack
TTITLE11=Trembling blues
TTITLE12=Prison bound
TTITLE13=My Electronical Invention Blues Blues
TTITLE14=Brownskin Woman
TTITLE15=La Salle Street Boogie
TTITLE16=That's Why I keep Drinkin' Blues
TTITLE17=I got the blues about my baby
TTITLE18=Bob Martin Blues
TTITLE19=Devil is a Busy Man
TTITLE20=No Special Rider Blues
TTITLE21=Every Time I get to Drinkin'
EXTD=
EXTT0=
EXTT1=
EXTT2=
EXTT3=
EXTT4=
EXTT5=
EXTT6=
EXTT7=
EXTT8=
EXTT9=
EXTT10=
EXTT11=
EXTT12=
EXTT13=
EXTT14=
EXTT15=
EXTT16=
EXTT17=
EXTT18=
EXTT19=
EXTT20=
EXTT21=
PLAYORDER=
